<svg xmlns="http://www.w3.org/2000/svg" version="1.1" xmlns:xlink="http://www.w3.org/1999/xlink" width="200" height="200"><svg xmlns="http://www.w3.org/2000/svg" version="1.1" xmlns:xlink="http://www.w3.org/1999/xlink" width="200" height="200"><svg xmlns="http://www.w3.org/2000/svg" version="1.1" xmlns:xlink="http://www.w3.org/1999/xlink" viewBox="0 0 200 200"><rect width="200" height="200" fill="url('#gradient')"></rect><defs><linearGradient id="gradient" gradientTransform="rotate(45 0.5 0.5)"><stop offset="0%" stop-color="#3c4845"></stop><stop offset="100%" stop-color="#1b7974"></stop></linearGradient></defs><g><g fill="#3df383" transform="matrix(5.026452140714481,0,0,5.026452140714481,5.678981999496614,136.92292294126457)" stroke="#c2d02d" stroke-width="0.2"><path d="M0.86-10.57L3.95-10.57L4.05-9.33Q5.15-10.76 7.07-10.76L7.07-10.76Q8.72-10.76 9.54-9.78Q10.35-8.79 10.38-6.81L10.38-6.81L10.38 0L7.08 0L7.08-6.67Q7.08-7.47 6.76-7.85Q6.44-8.22 5.59-8.22L5.59-8.22Q4.62-8.22 4.15-7.46L4.15-7.46L4.15 0L0.86 0L0.86-10.57ZM15.67-10.57L15.67 0L12.37 0L12.37-10.57L15.67-10.57ZM12.18-13.29L12.18-13.29Q12.18-13.99 12.69-14.44Q13.19-14.89 14.00-14.89Q14.81-14.89 15.32-14.44Q15.83-13.99 15.83-13.29Q15.83-12.59 15.32-12.14Q14.81-11.69 14.00-11.69Q13.19-11.69 12.69-12.14Q12.18-12.59 12.18-13.29ZM23.23-2.97L23.23-2.97Q23.23-3.39 22.79-3.64Q22.35-3.90 21.12-4.17Q19.89-4.44 19.09-4.89Q18.29-5.33 17.87-5.97Q17.45-6.60 17.45-7.42L17.45-7.42Q17.45-8.88 18.65-9.82Q19.85-10.76 21.80-10.76L21.80-10.76Q23.89-10.76 25.16-9.81Q26.43-8.87 26.43-7.32L26.43-7.32L23.13-7.32Q23.13-8.59 21.79-8.59L21.79-8.59Q21.27-8.59 20.92-8.31Q20.57-8.02 20.57-7.59L20.57-7.59Q20.57-7.15 21.00-6.88Q21.43-6.60 22.37-6.43Q23.31-6.25 24.02-6.01L24.02-6.01Q26.41-5.19 26.41-3.07L26.41-3.07Q26.41-1.62 25.12-0.71Q23.84 0.20 21.80 0.20L21.80 0.20Q20.44 0.20 19.38-0.29Q18.31-0.78 17.71-1.62Q17.12-2.46 17.12-3.39L17.12-3.39L20.20-3.39Q20.21-2.66 20.68-2.32Q21.15-1.98 21.88-1.98L21.88-1.98Q22.56-1.98 22.90-2.26Q23.23-2.53 23.23-2.97ZM33.48-2.97L33.48-2.97Q33.48-3.39 33.04-3.64Q32.60-3.90 31.37-4.17Q30.14-4.44 29.34-4.89Q28.54-5.33 28.12-5.97Q27.70-6.60 27.70-7.42L27.70-7.42Q27.70-8.88 28.90-9.82Q30.10-10.76 32.04-10.76L32.04-10.76Q34.13-10.76 35.40-9.81Q36.67-8.87 36.67-7.32L36.67-7.32L33.37-7.32Q33.37-8.59 32.03-8.59L32.03-8.59Q31.51-8.59 31.16-8.31Q30.81-8.02 30.81-7.59L30.81-7.59Q30.81-7.15 31.24-6.88Q31.67-6.60 32.61-6.43Q33.55-6.25 34.27-6.01L34.27-6.01Q36.65-5.19 36.65-3.07L36.65-3.07Q36.65-1.62 35.37-0.71Q34.08 0.20 32.04 0.20L32.04 0.20Q30.68 0.20 29.62-0.29Q28.55-0.78 27.96-1.62Q27.36-2.46 27.36-3.39L27.36-3.39L30.44-3.39Q30.46-2.66 30.93-2.32Q31.40-1.98 32.13-1.98L32.13-1.98Q32.80-1.98 33.14-2.26Q33.48-2.53 33.48-2.97Z"></path></g></g></svg></svg><style>@media (prefers-color-scheme: light) { :root { filter: none; } }
@media (prefers-color-scheme: dark) { :root { filter: none; } }
</style></svg>